<svg xmlns="http://www.w3.org/2000/svg" width="640" height="330" viewBox="0 0 640 330">
  <rect width="640" height="330" fill="white"/>
  <ellipse cx="320" cy="168" rx="248" ry="78" fill="#F7F9FD" stroke="#1E4B9E" stroke-width="6"/>
  <ellipse cx="126" cy="168" rx="38" ry="78" fill="white" stroke="#1E4B9E" stroke-width="5"/>
  <line x1="40" y1="168" x2="276" y2="168" stroke="#B5122B" stroke-width="6" marker-end="url(#arrRed)"/>
  <line x1="600" y1="168" x2="364" y2="168" stroke="#B5122B" stroke-width="6" marker-end="url(#arrRed)"/>
  <circle cx="320" cy="168" r="28" fill="#FDBB2D" stroke="#1E4B9E" stroke-width="3"/>
  <text x="320" y="178" text-anchor="middle" font-family="Times New Roman,serif" font-size="32" font-style="italic">S</text>
  <line x1="322" y1="142" x2="248" y2="70" stroke="#1E4B9E" stroke-width="5" stroke-dasharray="11 9" marker-end="url(#arrBlue)"/>
  <line x1="340" y1="150" x2="442" y2="84" stroke="#F47C20" stroke-width="6" marker-end="url(#arrOrange)"/>
  <line x1="340" y1="150" x2="390" y2="42" stroke="#F47C20" stroke-width="6" marker-end="url(#arrOrange)"/>
  <text x="235" y="58" font-family="Times New Roman,serif" font-size="32" font-style="italic" fill="#1E4B9E">tag</text>
  <text x="456" y="82" font-family="Times New Roman,serif" font-size="32" font-style="italic">c</text>
  <text x="394" y="36" font-family="Times New Roman,serif" font-size="32" font-style="italic">d</text>
  <defs>
    <marker id="arrRed" markerWidth="10" markerHeight="10" refX="9" refY="3" orient="auto"><path d="M0,0 L0,6 L9,3 z" fill="#B5122B"/></marker>
    <marker id="arrBlue" markerWidth="10" markerHeight="10" refX="9" refY="3" orient="auto"><path d="M0,0 L0,6 L9,3 z" fill="#1E4B9E"/></marker>
    <marker id="arrOrange" markerWidth="10" markerHeight="10" refX="9" refY="3" orient="auto"><path d="M0,0 L0,6 L9,3 z" fill="#F47C20"/></marker>
  </defs>
</svg>
